<?xml version="1.0" standalone="no"?>
<!DOCTYPE svg PUBLIC "-//W3C//DTD SVG 1.1//EN" "http://www.w3.org/Graphics/SVG/1.1/DTD/svg11.dtd" >
<svg xmlns="http://www.w3.org/2000/svg">
<metadata></metadata>
<defs>
<font id="icarasregular" horiz-adv-x="1222" >
<font-face units-per-em="2048" ascent="1638" descent="-410" />
<missing-glyph horiz-adv-x="576" />
<glyph horiz-adv-x="6" />
<glyph horiz-adv-x="6" />
<glyph unicode="&#xd;" horiz-adv-x="0" />
<glyph unicode=" "  horiz-adv-x="576" />
<glyph unicode="&#x09;" horiz-adv-x="576" />
<glyph unicode="&#xa0;" horiz-adv-x="576" />
<glyph unicode="A" d="M0 192v960h1152v-1152h-192l-64 64l-64 64l-64 64v576h-384v-384h320v-384h-512l-64 64l-64 64z" />
<glyph unicode="B" d="M0 192v960h384v-320h768v-832h-960l-64 64l-64 64zM384 384h384v64h-384v-64z" />
<glyph unicode="C" d="M0 192v960h1152v-384h-768v-384h768v-384h-960l-64 64l-64 64z" />
<glyph unicode="D" d="M0 192v640h768v320h384v-1152h-960l-64 64l-64 64zM384 384h384v64h-384v-64z" />
<glyph unicode="E" d="M0 192v960h1152v-704h-768v-64h768v-384h-960l-64 64l-64 64zM384 704h384v64h-384v-64z" />
<glyph unicode="F" d="M0 192v960h1152v-384h-768v-64h512v-256h-512v-448h-192l-64 64l-64 64z" />
<glyph unicode="G" d="M0 192v960h1152v-384h-768v-384h384v64l-64 64l-64 64l-64 64v64h576v-704h-960l-64 64l-64 64z" />
<glyph unicode="H" d="M0 192v960h384v-448h384v448h384v-1152h-192l-64 64l-64 64l-64 64v256h-384v-448h-192l-64 64l-64 64z" />
<glyph unicode="I" horiz-adv-x="454" d="M0 192v960h384v-1152h-192l-64 64l-64 64z" />
<glyph unicode="J" d="M0 192v192h768v768h384v-1152h-960l-64 64l-64 64z" />
<glyph unicode="K" d="M0 192v960h384v-448h128l64 64l64 64l64 64l64 64l64 64l64 64l64 64h192v-256l-64 -64l-64 -64l-64 -64l-64 -64l-64 -64l64 -64l64 -64l64 -64l64 -64l64 -64v-256h-192l-64 64l-64 64l-64 64l-64 64l-64 64l-64 64l-64 64h-128v-448h-192l-64 64l-64 64z" />
<glyph unicode="L" d="M0 192v960h384v-768h768v-384h-960l-64 64l-64 64z" />
<glyph unicode="M" d="M0 192v960h1152v-1152h-192l-64 64l-64 64l-64 64v576h-64v-768h-128l-64 64l-64 64v640h-64v-768h-192l-64 64l-64 64z" />
<glyph unicode="N" d="M0 192v960h1152v-1152h-192l-64 64l-64 64l-64 64v576h-384v-768h-192l-64 64l-64 64z" />
<glyph unicode="O" d="M0 192v960h1152v-1152h-960l-64 64l-64 64zM384 384h384v384h-384v-384z" />
<glyph unicode="P" d="M0 192v960h1152v-704h-768v-448h-192l-64 64l-64 64zM384 704h384v64h-384v-64z" />
<glyph unicode="Q" horiz-adv-x="1414" d="M0 192v960h1152v-768h192v-384h-1152l-64 64l-64 64zM384 384h384v384h-384v-384z" />
<glyph unicode="R" d="M0 192v960h1152v-384h-768v-768h-192l-64 64l-64 64z" />
<glyph unicode="S" d="M0 192v192h768v64h-576l-64 64l-64 64l-64 64v512h1152v-384h-768v-64h768v-704h-960l-64 64l-64 64z" />
<glyph unicode="T" d="M0 960v192h1152v-384h-384v-768h-192l-64 64l-64 64l-64 64v576h-192l-64 64l-64 64z" />
<glyph unicode="U" d="M0 192v960h384v-768h384v768h384v-1152h-960l-64 64l-64 64z" />
<glyph unicode="V" d="M0 192v960h384v-768l64 64l64 64l64 64l64 64l64 64l64 64v384h384v-448l-64 -64l-64 -64l-64 -64l-64 -64l-64 -64l-64 -64l-64 -64l-64 -64l-64 -64l-64 -64l-64 -64h-256l-64 64l-64 64z" />
<glyph unicode="W" d="M0 192v960h384v-768h64v768h256v-768h64v768h384v-1152h-960l-64 64l-64 64z" />
<glyph unicode="X" d="M0 0v256l64 64l64 64l64 64l64 64l64 64l-64 64l-64 64l-64 64l-64 64l-64 64v256h192l64 -64l64 -64l64 -64l64 -64l64 -64l64 -64l64 64l64 64l64 64l64 64l64 64l64 64h192v-256l-64 -64l-64 -64l-64 -64l-64 -64l-64 -64l64 -64l64 -64l64 -64l64 -64l64 -64v-256 h-192l-64 64l-64 64l-64 64l-64 64l-64 64l-64 64l-64 -64l-64 -64l-64 -64l-64 -64l-64 -64l-64 -64h-192z" />
<glyph unicode="Y" d="M0 640v512h384v-384h384v384h384v-704h-384v-448h-192l-64 64l-64 64l-64 64v256h-192l-64 64l-64 64z" />
<glyph unicode="Z" d="M0 0v256l64 64l64 64l64 64l64 64l64 64l64 64l64 64l64 64h-512v384h1152v-256l-64 -64l-64 -64l-64 -64l-64 -64l-64 -64l-64 -64l-64 -64l-64 -64h512v-384h-1152z" />
<glyph unicode="a" d="M0 192v960h1152v-1152h-192l-64 64l-64 64l-64 64v576h-384v-384h320v-384h-512l-64 64l-64 64z" />
<glyph unicode="b" d="M0 192v960h384v-320h768v-832h-960l-64 64l-64 64zM384 384h384v64h-384v-64z" />
<glyph unicode="c" d="M0 192v960h1152v-384h-768v-384h768v-384h-960l-64 64l-64 64z" />
<glyph unicode="d" d="M0 192v640h768v320h384v-1152h-960l-64 64l-64 64zM384 384h384v64h-384v-64z" />
<glyph unicode="e" d="M0 192v960h1152v-704h-768v-64h768v-384h-960l-64 64l-64 64zM384 704h384v64h-384v-64z" />
<glyph unicode="f" d="M0 192v960h1152v-384h-768v-64h512v-256h-512v-448h-192l-64 64l-64 64z" />
<glyph unicode="g" d="M0 192v960h1152v-384h-768v-384h384v64l-64 64l-64 64l-64 64v64h576v-704h-960l-64 64l-64 64z" />
<glyph unicode="h" d="M0 192v960h384v-448h384v448h384v-1152h-192l-64 64l-64 64l-64 64v256h-384v-448h-192l-64 64l-64 64z" />
<glyph unicode="i" horiz-adv-x="454" d="M0 192v960h384v-1152h-192l-64 64l-64 64z" />
<glyph unicode="j" d="M0 192v192h768v768h384v-1152h-960l-64 64l-64 64z" />
<glyph unicode="k" d="M0 192v960h384v-448h128l64 64l64 64l64 64l64 64l64 64l64 64l64 64h192v-256l-64 -64l-64 -64l-64 -64l-64 -64l-64 -64l64 -64l64 -64l64 -64l64 -64l64 -64v-256h-192l-64 64l-64 64l-64 64l-64 64l-64 64l-64 64l-64 64h-128v-448h-192l-64 64l-64 64z" />
<glyph unicode="l" d="M0 192v960h384v-768h768v-384h-960l-64 64l-64 64z" />
<glyph unicode="m" d="M0 192v960h1152v-1152h-192l-64 64l-64 64l-64 64v576h-64v-768h-128l-64 64l-64 64v640h-64v-768h-192l-64 64l-64 64z" />
<glyph unicode="n" d="M0 192v960h1152v-1152h-192l-64 64l-64 64l-64 64v576h-384v-768h-192l-64 64l-64 64z" />
<glyph unicode="o" d="M0 192v960h1152v-1152h-960l-64 64l-64 64zM384 384h384v384h-384v-384z" />
<glyph unicode="p" d="M0 192v960h1152v-704h-768v-448h-192l-64 64l-64 64zM384 704h384v64h-384v-64z" />
<glyph unicode="q" horiz-adv-x="1414" d="M0 192v960h1152v-768h192v-384h-1152l-64 64l-64 64zM384 384h384v384h-384v-384z" />
<glyph unicode="r" d="M0 192v960h1152v-384h-768v-768h-192l-64 64l-64 64z" />
<glyph unicode="s" d="M0 192v192h768v64h-576l-64 64l-64 64l-64 64v512h1152v-384h-768v-64h768v-704h-960l-64 64l-64 64z" />
<glyph unicode="t" d="M0 960v192h1152v-384h-384v-768h-192l-64 64l-64 64l-64 64v576h-192l-64 64l-64 64z" />
<glyph unicode="u" d="M0 192v960h384v-768h384v768h384v-1152h-960l-64 64l-64 64z" />
<glyph unicode="v" d="M0 192v960h384v-768l64 64l64 64l64 64l64 64l64 64l64 64v384h384v-448l-64 -64l-64 -64l-64 -64l-64 -64l-64 -64l-64 -64l-64 -64l-64 -64l-64 -64l-64 -64l-64 -64h-256l-64 64l-64 64z" />
<glyph unicode="w" d="M0 192v960h384v-768h64v768h256v-768h64v768h384v-1152h-960l-64 64l-64 64z" />
<glyph unicode="x" d="M0 0v256l64 64l64 64l64 64l64 64l64 64l-64 64l-64 64l-64 64l-64 64l-64 64v256h192l64 -64l64 -64l64 -64l64 -64l64 -64l64 -64l64 64l64 64l64 64l64 64l64 64l64 64h192v-256l-64 -64l-64 -64l-64 -64l-64 -64l-64 -64l64 -64l64 -64l64 -64l64 -64l64 -64v-256 h-192l-64 64l-64 64l-64 64l-64 64l-64 64l-64 64l-64 -64l-64 -64l-64 -64l-64 -64l-64 -64l-64 -64h-192z" />
<glyph unicode="y" d="M0 640v512h384v-384h384v384h384v-704h-384v-448h-192l-64 64l-64 64l-64 64v256h-192l-64 64l-64 64z" />
<glyph unicode="z" d="M0 0v256l64 64l64 64l64 64l64 64l64 64l64 64l64 64l64 64h-512v384h1152v-256l-64 -64l-64 -64l-64 -64l-64 -64l-64 -64l-64 -64l-64 -64l-64 -64h512v-384h-1152z" />
<glyph unicode="&#x2000;" horiz-adv-x="682" />
<glyph unicode="&#x2001;" horiz-adv-x="1365" />
<glyph unicode="&#x2002;" horiz-adv-x="682" />
<glyph unicode="&#x2003;" horiz-adv-x="1365" />
<glyph unicode="&#x2004;" horiz-adv-x="455" />
<glyph unicode="&#x2005;" horiz-adv-x="341" />
<glyph unicode="&#x2006;" horiz-adv-x="227" />
<glyph unicode="&#x2007;" horiz-adv-x="227" />
<glyph unicode="&#x2008;" horiz-adv-x="170" />
<glyph unicode="&#x2009;" horiz-adv-x="273" />
<glyph unicode="&#x200a;" horiz-adv-x="75" />
<glyph unicode="&#x202f;" horiz-adv-x="273" />
<glyph unicode="&#x205f;" horiz-adv-x="341" />
<glyph unicode="&#xe000;" horiz-adv-x="1150" d="M0 0v1150h1150v-1150h-1150z" />
</font>
</defs>
</svg>
